# xmcd
#
# Track frame offsets:
#	150
#	17804
#	37581
#	54226
#	69606
#	84686
#	102887
#	117947
#	137635
#	155048
#	173025
#
# Disc length: 2554 seconds
# Revision: 3
# Processed by: cddbd v1.5.2PL0 Copyright (c) Steve Scherf et al.
# Submitted via: dBpowerAMP V12.0
#
DISCID=8709f80b
DTITLE=Van Zant - My Kind of Country
DYEAR=2007
DGENRE=Country/Rock
TTITLE0=Train
TTITLE1=These Colors Don't Run
TTITLE2=Goes Down Easy
TTITLE3=That Scares Me
TTITLE4=My Kind of Country
TTITLE5=The Hardest Thing
TTITLE6=It's Only Money
TTITLE7=We Can't Do It Alone
TTITLE8=Friend
TTITLE9=It's All About You
TTITLE10=Headed South
EXTD=
EXTT0=
EXTT1=
EXTT2=
EXTT3=
EXTT4=
EXTT5=
EXTT6=
EXTT7=
EXTT8=
EXTT9=
EXTT10=
PLAYORDER=
